# xmcd
#
# Track frame offsets:
# 150
# 11418
# 32020
# 51270
# 69313
# 94532
# 113528
# 139432
# 156483
# 177258
# 193631
# 216731
# 241495
# 265754
#
# Disc length: 3995 seconds
#
#
# Revision: 0
# Processed by: cddbd v1.4PL0 Copyright (c) Steve Scherf et al.
# Submitted via: FreeRIP 2.35 
#
DISCID=c70f990e
DTITLE=Skytturnar - Illgresið
DYEAR=2003
DGENRE=
TTITLE0=Brauðið
TTITLE1=Logn á undan storminum
TTITLE2=Týndur meðal fólksins
TTITLE3=Á sama tíma
TTITLE4=Hvað er næst
TTITLE5=Örkin hans Nóa
TTITLE6=Ak öfgar ásamt Forgotten Lores
TTITLE7=Draumar
TTITLE8=Ég ætla aldrei
TTITLE9=Á undan hestinum
TTITLE10=Ólíklegur líflegur
TTITLE11=Guðlast ásamt A-ess
TTITLE12=Lífið er fangelsi
TTITLE13=Ævintýri ásamt Birki úr FL
EXTD=
EXTT0=
EXTT1=
EXTT2=
EXTT3=
EXTT4=
EXTT5=
EXTT6=
EXTT7=
EXTT8=
EXTT9=
EXTT10=
EXTT11=
EXTT12=
EXTT13=
PLAYORDER=
